<svg width="437" height="228" viewBox="0 0 437 228" fill="none" xmlns="http://www.w3.org/2000/svg">
<path d="M0.29 227V221.696H48.338V227H0.29Z" fill="#848484"/>
<path d="M60.3975 227V178.016H90.1935V183.242H66.4815V199.544H88.5555V204.77H66.4815V227H60.3975ZM104.734 180.902C103.486 180.902 102.498 180.551 101.77 179.849C101.042 179.121 100.678 178.172 100.678 177.002C100.678 175.858 101.042 174.948 101.77 174.272C102.498 173.596 103.486 173.258 104.734 173.258C105.982 173.258 106.97 173.596 107.698 174.272C108.426 174.948 108.79 175.858 108.79 177.002C108.79 178.172 108.426 179.121 107.698 179.849C106.97 180.551 105.982 180.902 104.734 180.902ZM101.692 227V189.638H107.776V227H101.692ZM151.054 227V205.082C151.054 201.52 150.196 198.816 148.48 196.97C146.79 195.098 144.476 194.162 141.538 194.162C139.302 194.162 137.365 194.773 135.727 195.995C134.089 197.217 132.828 198.972 131.944 201.26C131.06 203.522 130.618 206.226 130.618 209.372H128.278C128.278 205.03 128.85 201.325 129.994 198.257C131.138 195.189 132.802 192.849 134.986 191.237C137.196 189.599 139.874 188.78 143.02 188.78C145.958 188.78 148.467 189.443 150.547 190.769C152.653 192.069 154.265 193.941 155.383 196.385C156.501 198.829 157.06 201.728 157.06 205.082V227H151.054ZM124.534 227V189.716H129.76L130.618 198.296V227H124.534ZM194.696 227L193.916 218.81V202.82C193.916 199.466 193.201 197.061 191.771 195.605C190.341 194.123 188.196 193.382 185.336 193.382C183.724 193.382 182.255 193.616 180.929 194.084C179.629 194.552 178.589 195.28 177.809 196.268C177.055 197.23 176.678 198.478 176.678 200.012H169.892C169.892 197.308 170.555 195.137 171.881 193.499C173.207 191.835 175.027 190.639 177.341 189.911C179.681 189.157 182.346 188.78 185.336 188.78C188.196 188.78 190.731 189.261 192.941 190.223C195.151 191.185 196.88 192.719 198.128 194.825C199.376 196.905 200 199.622 200 202.976V227H194.696ZM181.982 227.936C178.914 227.936 176.379 227.39 174.377 226.298C172.375 225.206 170.88 223.789 169.892 222.047C168.904 220.305 168.41 218.472 168.41 216.548C168.41 214.026 169.034 211.972 170.282 210.386C171.556 208.8 173.285 207.643 175.469 206.915C177.653 206.161 180.11 205.784 182.84 205.784C184.79 205.784 186.74 205.979 188.69 206.369C190.666 206.759 192.59 207.292 194.462 207.968V211.79C192.902 211.166 191.134 210.672 189.158 210.308C187.208 209.944 185.414 209.762 183.776 209.762C181.28 209.762 179.174 210.282 177.458 211.322C175.742 212.336 174.884 214.078 174.884 216.548C174.884 218.368 175.534 219.928 176.834 221.228C178.16 222.528 180.266 223.178 183.152 223.178C185.18 223.178 187 222.71 188.612 221.774C190.25 220.812 191.537 219.616 192.473 218.186C193.435 216.756 193.916 215.326 193.916 213.896H195.398C195.398 216.392 194.852 218.706 193.76 220.838C192.694 222.97 191.16 224.686 189.158 225.986C187.156 227.286 184.764 227.936 181.982 227.936ZM241.089 227V205.082C241.089 201.52 240.231 198.816 238.515 196.97C236.825 195.098 234.511 194.162 231.573 194.162C229.337 194.162 227.4 194.773 225.762 195.995C224.124 197.217 222.863 198.972 221.979 201.26C221.095 203.522 220.653 206.226 220.653 209.372H218.313C218.313 205.03 218.885 201.325 220.029 198.257C221.173 195.189 222.837 192.849 225.021 191.237C227.231 189.599 229.909 188.78 233.055 188.78C235.993 188.78 238.502 189.443 240.582 190.769C242.688 192.069 244.3 193.941 245.418 196.385C246.536 198.829 247.095 201.728 247.095 205.082V227H241.089ZM214.569 227V189.716H219.795L220.653 198.296V227H214.569ZM274.748 227.936C271.758 227.936 268.963 227.13 266.363 225.518C263.789 223.906 261.709 221.631 260.123 218.693C258.537 215.755 257.744 212.284 257.744 208.28C257.744 204.172 258.537 200.662 260.123 197.75C261.709 194.838 263.789 192.615 266.363 191.081C268.963 189.547 271.758 188.78 274.748 188.78C276.854 188.78 278.739 189.105 280.403 189.755C282.093 190.379 283.562 191.25 284.81 192.368C286.058 193.486 287.085 194.76 287.891 196.19C288.723 197.594 289.334 199.076 289.724 200.636L283.484 201.182C282.834 199.024 281.742 197.321 280.208 196.073C278.7 194.799 276.854 194.162 274.67 194.162C272.824 194.162 271.082 194.695 269.444 195.761C267.832 196.801 266.519 198.374 265.505 200.48C264.491 202.56 263.984 205.16 263.984 208.28C263.984 211.166 264.439 213.675 265.349 215.807C266.285 217.913 267.559 219.551 269.171 220.721C270.783 221.891 272.616 222.476 274.67 222.476C277.556 222.476 279.74 221.774 281.222 220.37C282.73 218.94 283.484 216.964 283.484 214.442H289.724C289.724 217.042 289.113 219.356 287.891 221.384C286.669 223.412 284.927 225.011 282.665 226.181C280.429 227.351 277.79 227.936 274.748 227.936ZM314.81 227.936C311.586 227.936 308.7 227.117 306.152 225.479C303.63 223.815 301.628 221.514 300.146 218.576C298.69 215.638 297.962 212.258 297.962 208.436C297.962 204.354 298.69 200.844 300.146 197.906C301.602 194.968 303.591 192.719 306.113 191.159C308.661 189.573 311.56 188.78 314.81 188.78C317.644 188.78 320.062 189.352 322.064 190.496C324.066 191.64 325.678 193.187 326.9 195.137C328.122 197.087 328.967 199.297 329.435 201.767C329.929 204.211 330.072 206.746 329.864 209.372H302.876V205.628H325.847L324.053 206.798C324.131 205.264 324.04 203.73 323.78 202.196C323.546 200.662 323.091 199.258 322.415 197.984C321.739 196.684 320.79 195.644 319.568 194.864C318.346 194.084 316.786 193.694 314.888 193.694C312.496 193.694 310.494 194.305 308.882 195.527C307.27 196.749 306.061 198.361 305.255 200.363C304.449 202.339 304.046 204.484 304.046 206.798V209.294C304.046 211.894 304.436 214.221 305.216 216.275C306.022 218.329 307.218 219.954 308.804 221.15C310.39 222.346 312.392 222.944 314.81 222.944C317.228 222.944 319.217 222.359 320.777 221.189C322.337 220.019 323.286 218.29 323.624 216.002H329.942C329.552 218.472 328.668 220.604 327.29 222.398C325.912 224.166 324.157 225.531 322.025 226.493C319.893 227.455 317.488 227.936 314.81 227.936Z" fill="#FFC40A"/>
<path d="M341.773 227V178.016H357.529C362.911 178.016 367.019 179.381 369.853 182.111C372.713 184.815 374.143 188.494 374.143 193.148C374.143 197.75 372.713 201.403 369.853 204.107C367.019 206.785 362.911 208.124 357.529 208.124H347.935V227H341.773ZM347.935 202.82H357.529C360.935 202.82 363.509 201.949 365.251 200.207C367.019 198.465 367.903 196.112 367.903 193.148C367.903 190.132 367.019 187.727 365.251 185.933C363.509 184.139 360.935 183.242 357.529 183.242H347.935V202.82ZM388.55 180.902C387.302 180.902 386.314 180.551 385.586 179.849C384.858 179.121 384.494 178.172 384.494 177.002C384.494 175.858 384.858 174.948 385.586 174.272C386.314 173.596 387.302 173.258 388.55 173.258C389.798 173.258 390.786 173.596 391.514 174.272C392.242 174.948 392.606 175.858 392.606 177.002C392.606 178.172 392.242 179.121 391.514 179.849C390.786 180.551 389.798 180.902 388.55 180.902ZM385.508 227V189.638H391.592V227H385.508ZM421.299 227.936C418.075 227.936 415.189 227.117 412.641 225.479C410.119 223.815 408.117 221.514 406.635 218.576C405.179 215.638 404.451 212.258 404.451 208.436C404.451 204.354 405.179 200.844 406.635 197.906C408.091 194.968 410.08 192.719 412.602 191.159C415.15 189.573 418.049 188.78 421.299 188.78C424.133 188.78 426.551 189.352 428.553 190.496C430.555 191.64 432.167 193.187 433.389 195.137C434.611 197.087 435.456 199.297 435.924 201.767C436.418 204.211 436.561 206.746 436.353 209.372H409.365V205.628H432.336L430.542 206.798C430.62 205.264 430.529 203.73 430.269 202.196C430.035 200.662 429.58 199.258 428.904 197.984C428.228 196.684 427.279 195.644 426.057 194.864C424.835 194.084 423.275 193.694 421.377 193.694C418.985 193.694 416.983 194.305 415.371 195.527C413.759 196.749 412.55 198.361 411.744 200.363C410.938 202.339 410.535 204.484 410.535 206.798V209.294C410.535 211.894 410.925 214.221 411.705 216.275C412.511 218.329 413.707 219.954 415.293 221.15C416.879 222.346 418.881 222.944 421.299 222.944C423.717 222.944 425.706 222.359 427.266 221.189C428.826 220.019 429.775 218.29 430.113 216.002H436.431C436.041 218.472 435.157 220.604 433.779 222.398C432.401 224.166 430.646 225.531 428.514 226.493C426.382 227.455 423.977 227.936 421.299 227.936Z" fill="#C98C17"/>
<path d="M341.773 227V178.016H357.529C362.911 178.016 367.019 179.381 369.853 182.111C372.713 184.815 374.143 188.494 374.143 193.148C374.143 197.75 372.713 201.403 369.853 204.107C367.019 206.785 362.911 208.124 357.529 208.124H347.935V227H341.773ZM347.935 202.82H357.529C360.935 202.82 363.509 201.949 365.251 200.207C367.019 198.465 367.903 196.112 367.903 193.148C367.903 190.132 367.019 187.727 365.251 185.933C363.509 184.139 360.935 183.242 357.529 183.242H347.935V202.82ZM388.55 180.902C387.302 180.902 386.314 180.551 385.586 179.849C384.858 179.121 384.494 178.172 384.494 177.002C384.494 175.858 384.858 174.948 385.586 174.272C386.314 173.596 387.302 173.258 388.55 173.258C389.798 173.258 390.786 173.596 391.514 174.272C392.242 174.948 392.606 175.858 392.606 177.002C392.606 178.172 392.242 179.121 391.514 179.849C390.786 180.551 389.798 180.902 388.55 180.902ZM385.508 227V189.638H391.592V227H385.508ZM421.299 227.936C418.075 227.936 415.189 227.117 412.641 225.479C410.119 223.815 408.117 221.514 406.635 218.576C405.179 215.638 404.451 212.258 404.451 208.436C404.451 204.354 405.179 200.844 406.635 197.906C408.091 194.968 410.08 192.719 412.602 191.159C415.15 189.573 418.049 188.78 421.299 188.78C424.133 188.78 426.551 189.352 428.553 190.496C430.555 191.64 432.167 193.187 433.389 195.137C434.611 197.087 435.456 199.297 435.924 201.767C436.418 204.211 436.561 206.746 436.353 209.372H409.365V205.628H432.336L430.542 206.798C430.62 205.264 430.529 203.73 430.269 202.196C430.035 200.662 429.58 199.258 428.904 197.984C428.228 196.684 427.279 195.644 426.057 194.864C424.835 194.084 423.275 193.694 421.377 193.694C418.985 193.694 416.983 194.305 415.371 195.527C413.759 196.749 412.55 198.361 411.744 200.363C410.938 202.339 410.535 204.484 410.535 206.798V209.294C410.535 211.894 410.925 214.221 411.705 216.275C412.511 218.329 413.707 219.954 415.293 221.15C416.879 222.346 418.881 222.944 421.299 222.944C423.717 222.944 425.706 222.359 427.266 221.189C428.826 220.019 429.775 218.29 430.113 216.002H436.431C436.041 218.472 435.157 220.604 433.779 222.398C432.401 224.166 430.646 225.531 428.514 226.493C426.382 227.455 423.977 227.936 421.299 227.936Z" fill="black" fill-opacity="0.2"/>
<path d="M226.192 68H276.22C277.999 68 279.438 69.4391 279.438 71.2183C279.438 100.576 255.576 124.438 226.218 124.438C224.439 124.438 223 122.999 223 121.246V71.2183C223 69.4129 224.413 68 226.192 68ZM229.41 117.897C252.671 116.327 271.327 97.6713 272.897 74.4104H229.41V117.897Z" fill="#EAC43D"/>
<path d="M213.191 0.0129013C245.27 0.0129013 271.356 26.0996 271.356 58.1781C271.356 59.9573 269.917 61.3964 268.138 61.3964H216.383V113.125C216.383 114.904 214.944 116.343 213.165 116.343C181.087 116.343 155 90.2566 155 58.1781C155 26.0996 181.113 0.0129013 213.191 0.0129013ZM209.973 109.828V58.1781C209.973 56.3988 211.412 54.9598 213.191 54.9598H264.841C263.167 27.905 240.639 6.42337 213.191 6.42337C184.645 6.42337 161.437 29.6319 161.437 58.1781C161.437 85.6253 182.918 108.18 209.973 109.828Z" fill="#EAC43D"/>
<path d="M175 50.9958C175 61.2437 195.186 60.5745 195.186 66.7617C195.186 69.7565 192.125 71.2191 188.574 71.2191C182.603 71.2191 181.539 67.6286 178.835 67.6286C176.92 67.6286 175.998 68.7573 175.998 70.0223C175.998 72.9623 180.76 75.1876 185.327 75.9584V78.7955C185.327 79.6454 185.688 80.4605 186.33 81.0614C186.972 81.6624 187.843 82 188.751 82C189.659 82 190.53 81.6624 191.172 81.0614C191.814 80.4605 192.175 79.6454 192.175 78.7955V75.8582C197.154 74.7976 201.437 71.5651 201.437 66.2955C201.437 56.4523 181.254 56.8504 181.254 49.9365C181.254 47.5415 184.024 45.1465 188.574 45.1465C195.397 45.1465 197.671 49.469 200.442 49.469C201.793 49.469 203 48.4057 203 46.8028C203 44.2569 198.44 41.1927 192.17 40.3364L192.175 40.3164V37.1146C192.149 36.2804 191.777 35.4884 191.137 34.9069C190.498 34.3253 189.641 34 188.75 34C187.858 34 187.001 34.3253 186.362 34.9069C185.722 35.4884 185.35 36.2804 185.324 37.1146V40.3164C185.324 40.3538 185.344 40.3832 185.347 40.4166C179.705 41.4024 175 44.8446 175 50.9958Z" fill="#EAC43D"/>
</svg>
