<svg width="385" height="64" viewBox="0 0 385 64" fill="none" xmlns="http://www.w3.org/2000/svg">
<path d="M0.0250002 50V46.26H33.905V50H0.0250002Z" fill="#848484"/>
<path d="M42.4085 50V15.46H63.4185V19.145H46.6985V30.64H62.2635V34.325H46.6985V50H42.4085ZM73.6713 17.495C72.7913 17.495 72.0946 17.2475 71.5813 16.7525C71.068 16.2392 70.8113 15.57 70.8113 14.745C70.8113 13.9383 71.068 13.2967 71.5813 12.82C72.0946 12.3433 72.7913 12.105 73.6713 12.105C74.5513 12.105 75.248 12.3433 75.7613 12.82C76.2746 13.2967 76.5313 13.9383 76.5313 14.745C76.5313 15.57 76.2746 16.2392 75.7613 16.7525C75.248 17.2475 74.5513 17.495 73.6713 17.495ZM71.5263 50V23.655H75.8163V50H71.5263ZM106.333 50V34.545C106.333 32.0333 105.728 30.1267 104.518 28.825C103.326 27.505 101.695 26.845 99.6231 26.845C98.0465 26.845 96.6806 27.2758 95.5256 28.1375C94.3706 28.9992 93.4815 30.2367 92.8581 31.85C92.2348 33.445 91.9231 35.3517 91.9231 37.57H90.2731C90.2731 34.5083 90.6765 31.8958 91.4831 29.7325C92.2898 27.5692 93.4631 25.9192 95.0031 24.7825C96.5615 23.6275 98.4498 23.05 100.668 23.05C102.74 23.05 104.509 23.5175 105.976 24.4525C107.461 25.3692 108.597 26.6892 109.386 28.4125C110.174 30.1358 110.568 32.18 110.568 34.545V50H106.333ZM87.6331 50V23.71H91.3181L91.9231 29.76V50H87.6331ZM137.106 50L136.556 44.225V32.95C136.556 30.585 136.052 28.8892 135.044 27.8625C134.036 26.8175 132.523 26.295 130.506 26.295C129.37 26.295 128.334 26.46 127.399 26.79C126.482 27.12 125.749 27.6333 125.199 28.33C124.667 29.0083 124.401 29.8883 124.401 30.97H119.616C119.616 29.0633 120.084 27.5325 121.019 26.3775C121.954 25.2042 123.237 24.3608 124.869 23.8475C126.519 23.3158 128.398 23.05 130.506 23.05C132.523 23.05 134.311 23.3892 135.869 24.0675C137.427 24.7458 138.646 25.8275 139.526 27.3125C140.406 28.7792 140.846 30.695 140.846 33.06V50H137.106ZM128.141 50.66C125.978 50.66 124.191 50.275 122.779 49.505C121.367 48.735 120.313 47.7358 119.616 46.5075C118.92 45.2792 118.571 43.9867 118.571 42.63C118.571 40.8517 119.011 39.4033 119.891 38.285C120.79 37.1667 122.009 36.3508 123.549 35.8375C125.089 35.3058 126.821 35.04 128.746 35.04C130.121 35.04 131.496 35.1775 132.871 35.4525C134.265 35.7275 135.621 36.1033 136.941 36.58V39.275C135.841 38.835 134.595 38.4867 133.201 38.23C131.826 37.9733 130.561 37.845 129.406 37.845C127.646 37.845 126.161 38.2117 124.951 38.945C123.741 39.66 123.136 40.8883 123.136 42.63C123.136 43.9133 123.595 45.0133 124.511 45.93C125.446 46.8467 126.931 47.305 128.966 47.305C130.396 47.305 131.68 46.975 132.816 46.315C133.971 45.6367 134.879 44.7933 135.539 43.785C136.217 42.7767 136.556 41.7683 136.556 40.76H137.601C137.601 42.52 137.216 44.1517 136.446 45.655C135.695 47.1583 134.613 48.3683 133.201 49.285C131.79 50.2017 130.103 50.66 128.141 50.66ZM169.819 50V34.545C169.819 32.0333 169.214 30.1267 168.004 28.825C166.813 27.505 165.181 26.845 163.109 26.845C161.533 26.845 160.167 27.2758 159.012 28.1375C157.857 28.9992 156.968 30.2367 156.344 31.85C155.721 33.445 155.409 35.3517 155.409 37.57H153.759C153.759 34.5083 154.163 31.8958 154.969 29.7325C155.776 27.5692 156.949 25.9192 158.489 24.7825C160.048 23.6275 161.936 23.05 164.154 23.05C166.226 23.05 167.995 23.5175 169.462 24.4525C170.947 25.3692 172.084 26.6892 172.872 28.4125C173.66 30.1358 174.054 32.18 174.054 34.545V50H169.819ZM151.119 50V23.71H154.804L155.409 29.76V50H151.119ZM193.553 50.66C191.444 50.66 189.474 50.0917 187.64 48.955C185.825 47.8183 184.359 46.2142 183.24 44.1425C182.122 42.0708 181.563 39.6233 181.563 36.8C181.563 33.9033 182.122 31.4283 183.24 29.375C184.359 27.3217 185.825 25.7542 187.64 24.6725C189.474 23.5908 191.444 23.05 193.553 23.05C195.038 23.05 196.367 23.2792 197.54 23.7375C198.732 24.1775 199.768 24.7917 200.648 25.58C201.528 26.3683 202.252 27.2667 202.82 28.275C203.407 29.265 203.838 30.31 204.113 31.41L199.713 31.795C199.254 30.2733 198.484 29.0725 197.403 28.1925C196.339 27.2942 195.038 26.845 193.498 26.845C192.196 26.845 190.968 27.2208 189.813 27.9725C188.676 28.7058 187.75 29.815 187.035 31.3C186.32 32.7667 185.963 34.6 185.963 36.8C185.963 38.835 186.284 40.6042 186.925 42.1075C187.585 43.5925 188.484 44.7475 189.62 45.5725C190.757 46.3975 192.049 46.81 193.498 46.81C195.533 46.81 197.073 46.315 198.118 45.325C199.181 44.3167 199.713 42.9233 199.713 41.145H204.113C204.113 42.9783 203.682 44.61 202.82 46.04C201.959 47.47 200.73 48.5975 199.135 49.4225C197.559 50.2475 195.698 50.66 193.553 50.66ZM221.802 50.66C219.529 50.66 217.494 50.0825 215.697 48.9275C213.919 47.7542 212.507 46.1317 211.462 44.06C210.436 41.9883 209.922 39.605 209.922 36.91C209.922 34.0317 210.436 31.5567 211.462 29.485C212.489 27.4133 213.891 25.8275 215.67 24.7275C217.466 23.6092 219.511 23.05 221.802 23.05C223.801 23.05 225.506 23.4533 226.917 24.26C228.329 25.0667 229.466 26.1575 230.327 27.5325C231.189 28.9075 231.785 30.4658 232.115 32.2075C232.463 33.9308 232.564 35.7183 232.417 37.57H213.387V34.93H229.585L228.32 35.755C228.375 34.6733 228.311 33.5917 228.127 32.51C227.962 31.4283 227.641 30.4383 227.165 29.54C226.688 28.6233 226.019 27.89 225.157 27.34C224.296 26.79 223.196 26.515 221.857 26.515C220.171 26.515 218.759 26.9458 217.622 27.8075C216.486 28.6692 215.633 29.8058 215.065 31.2175C214.496 32.6108 214.212 34.1233 214.212 35.755V37.515C214.212 39.3483 214.487 40.9892 215.037 42.4375C215.606 43.8858 216.449 45.0317 217.567 45.875C218.686 46.7183 220.097 47.14 221.802 47.14C223.507 47.14 224.91 46.7275 226.01 45.9025C227.11 45.0775 227.779 43.8583 228.017 42.245H232.472C232.197 43.9867 231.574 45.49 230.602 46.755C229.631 48.0017 228.393 48.9642 226.89 49.6425C225.386 50.3208 223.691 50.66 221.802 50.66Z" fill="#FFC40A"/>
<path d="M240.814 50V15.46H251.924C255.719 15.46 258.616 16.4225 260.614 18.3475C262.631 20.2542 263.639 22.8483 263.639 26.13C263.639 29.375 262.631 31.9508 260.614 33.8575C258.616 35.7458 255.719 36.69 251.924 36.69H245.159V50H240.814ZM245.159 32.95H251.924C254.326 32.95 256.141 32.3358 257.369 31.1075C258.616 29.8792 259.239 28.22 259.239 26.13C259.239 24.0033 258.616 22.3075 257.369 21.0425C256.141 19.7775 254.326 19.145 251.924 19.145H245.159V32.95ZM273.798 17.495C272.918 17.495 272.222 17.2475 271.708 16.7525C271.195 16.2392 270.938 15.57 270.938 14.745C270.938 13.9383 271.195 13.2967 271.708 12.82C272.222 12.3433 272.918 12.105 273.798 12.105C274.678 12.105 275.375 12.3433 275.888 12.82C276.402 13.2967 276.658 13.9383 276.658 14.745C276.658 15.57 276.402 16.2392 275.888 16.7525C275.375 17.2475 274.678 17.495 273.798 17.495ZM271.653 50V23.655H275.943V50H271.653ZM296.89 50.66C294.617 50.66 292.582 50.0825 290.785 48.9275C289.007 47.7542 287.595 46.1317 286.55 44.06C285.523 41.9883 285.01 39.605 285.01 36.91C285.01 34.0317 285.523 31.5567 286.55 29.485C287.577 27.4133 288.979 25.8275 290.758 24.7275C292.554 23.6092 294.598 23.05 296.89 23.05C298.888 23.05 300.593 23.4533 302.005 24.26C303.417 25.0667 304.553 26.1575 305.415 27.5325C306.277 28.9075 306.873 30.4658 307.203 32.2075C307.551 33.9308 307.652 35.7183 307.505 37.57H288.475V34.93H304.673L303.408 35.755C303.463 34.6733 303.398 33.5917 303.215 32.51C303.05 31.4283 302.729 30.4383 302.253 29.54C301.776 28.6233 301.107 27.89 300.245 27.34C299.383 26.79 298.283 26.515 296.945 26.515C295.258 26.515 293.847 26.9458 292.71 27.8075C291.573 28.6692 290.721 29.8058 290.153 31.2175C289.584 32.6108 289.3 34.1233 289.3 35.755V37.515C289.3 39.3483 289.575 40.9892 290.125 42.4375C290.693 43.8858 291.537 45.0317 292.655 45.875C293.773 46.7183 295.185 47.14 296.89 47.14C298.595 47.14 299.998 46.7275 301.098 45.9025C302.198 45.0775 302.867 43.8583 303.105 42.245H307.56C307.285 43.9867 306.662 45.49 305.69 46.755C304.718 48.0017 303.481 48.9642 301.978 49.6425C300.474 50.3208 298.778 50.66 296.89 50.66Z" fill="#C98C17"/>
<path d="M240.814 50V15.46H251.924C255.719 15.46 258.616 16.4225 260.614 18.3475C262.631 20.2542 263.639 22.8483 263.639 26.13C263.639 29.375 262.631 31.9508 260.614 33.8575C258.616 35.7458 255.719 36.69 251.924 36.69H245.159V50H240.814ZM245.159 32.95H251.924C254.326 32.95 256.141 32.3358 257.369 31.1075C258.616 29.8792 259.239 28.22 259.239 26.13C259.239 24.0033 258.616 22.3075 257.369 21.0425C256.141 19.7775 254.326 19.145 251.924 19.145H245.159V32.95ZM273.798 17.495C272.918 17.495 272.222 17.2475 271.708 16.7525C271.195 16.2392 270.938 15.57 270.938 14.745C270.938 13.9383 271.195 13.2967 271.708 12.82C272.222 12.3433 272.918 12.105 273.798 12.105C274.678 12.105 275.375 12.3433 275.888 12.82C276.402 13.2967 276.658 13.9383 276.658 14.745C276.658 15.57 276.402 16.2392 275.888 16.7525C275.375 17.2475 274.678 17.495 273.798 17.495ZM271.653 50V23.655H275.943V50H271.653ZM296.89 50.66C294.617 50.66 292.582 50.0825 290.785 48.9275C289.007 47.7542 287.595 46.1317 286.55 44.06C285.523 41.9883 285.01 39.605 285.01 36.91C285.01 34.0317 285.523 31.5567 286.55 29.485C287.577 27.4133 288.979 25.8275 290.758 24.7275C292.554 23.6092 294.598 23.05 296.89 23.05C298.888 23.05 300.593 23.4533 302.005 24.26C303.417 25.0667 304.553 26.1575 305.415 27.5325C306.277 28.9075 306.873 30.4658 307.203 32.2075C307.551 33.9308 307.652 35.7183 307.505 37.57H288.475V34.93H304.673L303.408 35.755C303.463 34.6733 303.398 33.5917 303.215 32.51C303.05 31.4283 302.729 30.4383 302.253 29.54C301.776 28.6233 301.107 27.89 300.245 27.34C299.383 26.79 298.283 26.515 296.945 26.515C295.258 26.515 293.847 26.9458 292.71 27.8075C291.573 28.6692 290.721 29.8058 290.153 31.2175C289.584 32.6108 289.3 34.1233 289.3 35.755V37.515C289.3 39.3483 289.575 40.9892 290.125 42.4375C290.693 43.8858 291.537 45.0317 292.655 45.875C293.773 46.7183 295.185 47.14 296.89 47.14C298.595 47.14 299.998 46.7275 301.098 45.9025C302.198 45.0775 302.867 43.8583 303.105 42.245H307.56C307.285 43.9867 306.662 45.49 305.69 46.755C304.718 48.0017 303.481 48.9642 301.978 49.6425C300.474 50.3208 298.778 50.66 296.89 50.66Z" fill="black" fill-opacity="0.2"/>
<path d="M356.596 34H381.61C382.5 34 383.219 34.7196 383.219 35.6092C383.219 50.2879 371.288 62.2192 356.609 62.2192C355.72 62.2192 355 61.4996 355 60.6231V35.6092C355 34.7065 355.706 34 356.596 34ZM358.205 58.9485C369.836 58.1636 379.164 48.8357 379.948 37.2053H358.205V58.9485Z" fill="#EAC43D"/>
<path d="M350.096 0.00651169C366.135 0.00651169 379.178 13.0499 379.178 29.0891C379.178 29.9787 378.459 30.6983 377.569 30.6983H351.692V56.5625C351.692 57.4521 350.972 58.1717 350.083 58.1717C334.043 58.1717 321 45.1284 321 29.0891C321 13.0499 334.056 0.00651169 350.096 0.00651169ZM348.487 54.9141V29.0891C348.487 28.1995 349.206 27.4799 350.096 27.4799H375.921C375.083 13.9526 363.819 3.21175 350.096 3.21175C335.823 3.21175 324.218 14.816 324.218 29.0891C324.218 42.8127 334.959 54.0899 348.487 54.9141Z" fill="#EAC43D"/>
<path d="M331 25.4979C331 30.6219 341.093 30.2873 341.093 33.3809C341.093 34.8783 339.562 35.6096 337.787 35.6096C334.801 35.6096 334.27 33.8144 332.917 33.8144C331.96 33.8144 331.499 34.3787 331.499 35.0112C331.499 36.4812 333.88 37.5939 336.164 37.9792V39.3978C336.164 39.8228 336.344 40.2303 336.665 40.5308C336.986 40.8313 337.421 41.0001 337.875 41.0001C338.33 41.0001 338.765 40.8313 339.086 40.5308C339.407 40.2303 339.587 39.8228 339.587 39.3978V37.9292C342.077 37.3989 344.219 35.7826 344.219 33.1478C344.219 28.2262 334.127 28.4253 334.127 24.9683C334.127 23.7708 335.512 22.5733 337.787 22.5733C341.199 22.5733 342.335 24.7346 343.721 24.7346C344.396 24.7346 345 24.2029 345 23.4015C345 22.1285 342.72 20.5964 339.585 20.1683L339.587 20.1583V18.5574C339.575 18.1403 339.388 17.7443 339.069 17.4535C338.749 17.1627 338.321 17.0001 337.875 17.0001C337.429 17.0001 337.001 17.1627 336.681 17.4535C336.361 17.7443 336.175 18.1403 336.162 18.5574V20.1583C336.162 20.177 336.172 20.1917 336.174 20.2084C333.353 20.7012 331 22.4224 331 25.4979Z" fill="#EAC43D"/>
</svg>
